# File created by Blade
# Date/Time:  Fri Jan 16 19:18:57 2015
# Frame Rate: 120.000 fps
#------------------------------------------------------
:FULLY-SPECIFIED
:DEGREES
173
root 19.927656 35.711771 -22.182261 -169.168056 -1.505109 -179.597384
Spine -23.062853 -0.001687 -1.577246
Head 14.550283 -0.911079 -0.270708
LeftShoulder -5.992421 -59.230482 46.358212
LeftArm 52.429686 -25.283658 -13.289485
LeftForeArm -59.808492 -0.000000 50.707555
LeftHand 4.171363 -0.000000 -25.002524
LeftHandThumb1 -26.253704 0.000000 33.147579
RightShoulder -10.521396 23.728347 -47.026163
RightArm 118.357677 70.021422 83.910990
RightForeArm 38.467694 0.000000 76.433683
RightHand 12.078863 0.000000 5.761579
RightHandThumb1 -24.326973 -0.000000 -32.862282
LeftUpLeg -1.882701 8.422665 -0.523634
LeftLeg -7.173402 -0.000000 0.000000
LeftFoot -19.022806 25.820060 -15.916078
LeftToeBase 24.633342 -0.000000 -0.000000
RightUpLeg -2.623765 -5.861755 0.310431
RightLeg -3.409698 -0.000000 0.000000
RightFoot -21.073415 -25.220916 17.697530
RightToeBase 22.522799 -0.000000 -0.000000
174
root 19.928724 35.714717 -22.182533 -169.150494 -1.471023 -179.586643
Spine -23.107703 -0.100193 -1.569136
Head 14.802478 -0.815402 -0.203361
LeftShoulder -5.977782 -59.664363 46.769012
LeftArm 52.499879 -25.075870 -13.296509
LeftForeArm -60.228472 -0.000000 51.581552
LeftHand 4.242305 -0.000000 -25.302601
LeftHandThumb1 -26.253704 0.000000 33.147579
RightShoulder -10.678298 23.942064 -47.211157
RightArm 119.579011 69.940949 84.800734
RightForeArm 38.893381 0.000000 77.702550
RightHand 12.081067 0.000000 5.932421
RightHandThumb1 -24.326973 -0.000000 -32.862282
LeftUpLeg -1.892754 8.439516 -0.517853
LeftLeg -7.178206 -0.000000 0.000000
LeftFoot -19.053317 25.814690 -15.992731
LeftToeBase 24.674403 -0.000000 -0.000000
RightUpLeg -2.654818 -5.836161 0.320127
RightLeg -3.391152 -0.000000 0.000000
RightFoot -21.071441 -25.186239 17.688880
RightToeBase 22.689247 -0.000000 -0.000000
175
root 19.929658 35.717044 -22.181633 -169.123208 -1.445550 -179.580716
Spine -23.145854 -0.217648 -1.563557
Head 15.057550 -1.007715 -0.315825
LeftShoulder -6.090980 -60.119760 47.262716
LeftArm 52.603606 -24.836930 -13.359339
LeftForeArm -60.491335 0.000000 52.436482
LeftHand 4.339463 -0.000000 -25.594100
LeftHandThumb1 -26.253704 0.000000 33.147579
RightShoulder -10.947013 24.045803 -47.414999
RightArm 121.007410 69.699144 85.954974
RightForeArm 39.286670 0.000000 78.984452
RightHand 12.180995 -0.000000 5.941136
RightHandThumb1 -24.326973 -0.000000 -32.862282
LeftUpLeg -1.922115 8.381954 -0.509387
LeftLeg -7.166132 -0.000000 0.000000
LeftFoot -19.043242 25.875054 -16.022804
LeftToeBase 24.567861 -0.000000 -0.000000
RightUpLeg -2.698724 -5.829127 0.328142
RightLeg -3.367685 -0.000000 0.000000
RightFoot -21.070479 -25.210435 17.597344
RightToeBase 22.905111 -0.000000 -0.000000
176
root 19.931187 35.719457 -22.181688 -169.091858 -1.385215 -179.569688
Spine -23.227864 -0.311406 -1.570951
Head 15.270557 -1.191097 -0.358401
LeftShoulder -6.047493 -60.444220 47.617692
LeftArm 52.705925 -24.705236 -13.373362
LeftForeArm -60.744292 -0.000000 53.267827
LeftHand 4.515479 -0.000000 -25.890405
LeftHandThumb1 -26.253704 0.000000 33.147579
RightShoulder -11.068989 24.133303 -47.457929
RightArm 122.386579 69.497423 86.881816
RightForeArm 39.920714 -0.000000 80.188626
RightHand 12.375599 -0.000000 5.851359
RightHandThumb1 -24.326973 -0.000000 -32.862282
LeftUpLeg -1.943033 8.411026 -0.507826
LeftLeg -7.174177 -0.000000 0.000000
LeftFoot -19.069359 25.886397 -16.083704
LeftToeBase 24.609530 -0.000000 -0.000000
RightUpLeg -2.747505 -5.801629 0.337157
RightLeg -3.351643 -0.000000 0.000000
RightFoot -21.057354 -25.173325 17.627201
RightToeBase 22.941342 -0.000000 -0.000000
